<svg width="29" height="32" viewBox="0 0 29 32" fill="none" xmlns="http://www.w3.org/2000/svg">
    <path d="M14.188 31.9973H14.184C13.7319 31.9973 13.3092 31.876 12.9465 31.6626L12.9585 31.6693L9.04216 29.3531C8.4581 29.025 8.74346 28.9104 8.93548 28.8424C9.56919 28.6459 10.1751 28.3689 10.7383 28.0183L10.7063 28.037C10.753 28.0157 10.8043 28.0067 10.8555 28.0109C10.9066 28.0151 10.9558 28.0323 10.9983 28.061L10.997 28.0596L14.0053 29.8451C14.0615 29.8753 14.1243 29.8909 14.1881 29.8907C14.2519 29.8904 14.3146 29.8743 14.3706 29.8438L14.368 29.8451L26.0944 23.0752C26.1488 23.0419 26.1938 22.9953 26.225 22.9397C26.2563 22.8842 26.2729 22.8216 26.2731 22.7578V9.22457C26.2725 9.16039 26.2556 9.0974 26.2239 9.04162C26.1921 8.98583 26.1466 8.9391 26.0917 8.90587L26.0904 8.90454L14.368 2.14126C14.3125 2.11026 14.25 2.0941 14.1865 2.09434C14.1229 2.09457 14.0605 2.11119 14.0053 2.14259L14.0066 2.14126L2.28688 8.90587C2.23094 8.93863 2.18445 8.98533 2.15197 9.04143C2.11948 9.09752 2.1021 9.16108 2.10153 9.2259V22.7591C2.10153 22.8938 2.17487 23.0098 2.28421 23.0712L2.28554 23.0725L5.49917 24.9287C7.24199 25.8007 8.30876 24.774 8.30876 23.7432V10.3793C8.30876 10.1927 8.46077 10.0406 8.64746 10.0406H10.1396C10.3263 10.0406 10.4783 10.1913 10.4783 10.3793V23.7432C10.4783 26.0701 9.21151 27.4049 7.00597 27.4049L6.91796 27.4062C5.98724 27.4077 5.07461 27.1491 4.28306 26.6595L1.22945 24.902C0.855343 24.6838 0.54496 24.3714 0.329242 23.9959C0.113523 23.6204 3.1223e-06 23.1949 0 22.7618V9.2259C0.00133345 8.31915 0.490711 7.52841 1.21878 7.09904L1.23078 7.09237L12.9585 0.315756C13.3384 0.107472 13.7649 -0.00115662 14.1982 9.28708e-06C14.6314 0.0011752 15.0573 0.112098 15.4361 0.322423L15.4227 0.315756L27.1491 7.09237C27.8892 7.52841 28.3773 8.31915 28.3799 9.2259V22.7605C28.3794 23.1915 28.2667 23.6149 28.0527 23.989C27.8388 24.3631 27.531 24.675 27.1598 24.894L27.1478 24.9007L15.4241 31.6719C15.0507 31.8885 14.6263 32.0017 14.1946 32H14.1853L14.188 31.9973Z" fill="#1CD6C1" />
    <path d="M17.811 22.6751C12.6799 22.6751 11.6038 20.3202 11.6038 18.3427V18.3413C11.6038 18.1546 11.7544 18.004 11.9411 18.004H13.4613C13.6306 18.004 13.7706 18.128 13.7973 18.2893C14.0253 19.8335 14.708 20.6135 17.811 20.6135C20.2819 20.6135 21.3313 20.0548 21.3313 18.744C21.3313 17.988 21.034 17.4279 17.1949 17.0519C13.9866 16.7319 12.0025 16.0251 12.0025 13.4582C12.0025 11.0927 13.9973 9.68054 17.3363 9.68054C21.094 9.68054 22.9528 10.9847 23.1875 13.7822L23.1888 13.8116C23.1888 13.9014 23.1531 13.9876 23.0896 14.0511C23.0261 14.1146 22.9399 14.1503 22.8501 14.1503H21.3393C21.2628 14.15 21.1887 14.1237 21.129 14.0757C21.0694 14.0278 21.0279 13.9609 21.0113 13.8863V13.8836C20.6459 12.2594 19.7578 11.7407 17.3496 11.7407C14.652 11.7407 14.3387 12.6808 14.3387 13.3835C14.3387 14.237 14.7094 14.485 18.351 14.9664C21.954 15.4437 23.6662 16.1171 23.6662 18.6494C23.6609 21.2083 21.5313 22.6724 17.815 22.6724L17.811 22.6751Z" fill="#1CD6C1" />
</svg>