<svg width="37" height="36" viewBox="0 0 37 36" fill="none" xmlns="http://www.w3.org/2000/svg">
<g clip-path="url(#clip0_14_761)">
<path d="M0.20752 18C0.20752 8.05888 8.26639 0 18.2075 0C28.1486 0 36.2075 8.05888 36.2075 18C36.2075 27.9411 28.1486 36 18.2075 36C8.26639 36 0.20752 27.9411 0.20752 18Z" fill="#1CD6C1"/>
<g clip-path="url(#clip1_14_761)">
<path d="M11.3005 20.2219C10.6976 19.2736 9.57364 17.9712 9.57364 16.8444C9.58698 16.4791 9.71036 16.1263 9.92763 15.8323C10.1449 15.5383 10.4459 15.3167 10.7912 15.1967C10.7356 14.2484 10.6976 13.2826 10.6976 12.3256C10.6976 11.7607 10.6976 11.19 10.7298 10.631C10.7592 10.2754 10.8229 9.92357 10.92 9.58029C11.3612 8.14323 12.3224 6.92229 13.6157 6.15601C14.0783 5.87327 14.5687 5.63887 15.0792 5.45652C16.0129 5.11994 16.5492 3.97726 17.5648 3.95677C19.9386 3.89531 22.8414 5.64968 24.3634 7.29743C25.3334 8.37009 25.885 9.75591 25.9176 11.2017L25.821 15.3577C26.0455 15.4043 26.2547 15.5067 26.4292 15.6556C26.6036 15.8045 26.7377 15.9949 26.8191 16.2093C27.144 17.5235 25.7829 19.1536 25.1507 20.1985C24.5653 21.1614 22.335 24.2754 22.335 24.2959C22.3471 24.4742 22.417 24.6438 22.5341 24.7788C25.9966 29.5377 36.2075 26.5341 36.2075 35.9991H18.3577L0.207489 35.9999C0.207489 26.5319 10.3873 29.5406 13.8469 24.7818C14.0167 24.533 14.0957 24.3954 14.0928 24.2871C14.0928 24.2257 11.5288 20.5995 11.3005 20.2336V20.2219Z" fill="#2F1F34"/>
</g>
</g>
<defs>
<clipPath id="clip0_14_761">
<path d="M0.20752 18C0.20752 8.05888 8.26639 0 18.2075 0C28.1486 0 36.2075 8.05888 36.2075 18C36.2075 27.9411 28.1486 36 18.2075 36C8.26639 36 0.20752 27.9411 0.20752 18Z" fill="white"/>
</clipPath>
<clipPath id="clip1_14_761">
<rect width="36" height="36" fill="white" transform="translate(0.20752)"/>
</clipPath>
</defs>
</svg>
