<svg width="36" height="32" viewBox="0 0 36 32" fill="none" xmlns="http://www.w3.org/2000/svg">
    <path d="M35.9332 16.0037C35.9332 13.6232 32.9522 11.3669 28.3812 9.96847C29.4368 5.31063 28.9681 1.60352 26.902 0.416226C26.4013 0.135828 25.8347 -0.00531196 25.261 0.00748607V1.63945C25.5979 1.63945 25.8689 1.70683 26.0965 1.8311C27.0921 2.40303 27.5248 4.57699 27.188 7.37529C27.1071 8.06401 26.9753 8.78866 26.8136 9.52828C25.2829 9.15942 23.7294 8.89283 22.1633 8.73027C21.2303 7.4431 20.2124 6.21965 19.1165 5.06808C21.5045 2.8492 23.7458 1.63346 25.27 1.63346V0C23.2548 0 20.6182 1.43583 17.9516 3.9257C15.2866 1.4523 12.6485 0.0299443 10.6347 0.0299443V1.66191C12.1514 1.66191 14.4002 2.87166 16.7883 5.07556C15.7627 6.15356 14.7371 7.37529 13.7624 8.73027C12.1931 8.89103 10.6368 9.16017 9.10457 9.53577C8.93539 8.80363 8.81112 8.09395 8.72278 7.41272C8.37842 4.61292 8.80363 2.43897 9.79329 1.86104C10.0119 1.72928 10.2979 1.6694 10.6347 1.6694V0.0374304C10.0209 0.0374304 9.46241 0.169185 8.9803 0.44617C6.92163 1.63346 6.46049 5.33159 7.52201 9.97595C2.96599 11.3833 0 13.6307 0 16.0037C0 18.3843 2.98096 20.6406 7.55196 22.0375C6.49642 26.6969 6.96505 30.404 9.03121 31.5898C9.50732 31.8682 10.0643 32 10.6781 32C12.6934 32 15.33 30.5642 17.9965 28.0743C20.6616 30.5492 23.2982 31.9701 25.3134 31.9701C25.8915 31.9823 26.4625 31.8407 26.9679 31.5598C29.0265 30.374 29.4877 26.6759 28.4261 22.0315C32.9672 20.6331 35.9332 18.3768 35.9332 16.0037ZM26.3959 11.1183C26.1114 12.0973 25.7817 13.0625 25.4078 14.0109C24.7956 12.8203 24.1235 11.6615 23.394 10.5389C24.4346 10.6931 25.4377 10.8833 26.3974 11.1183H26.3959ZM23.0422 18.9188C22.4717 19.907 21.8848 20.8457 21.2769 21.7171C19.0794 21.9108 16.8692 21.9133 14.6712 21.7246C13.4105 19.9237 12.3079 18.0172 11.3758 16.0262C12.3065 14.0306 13.4044 12.1173 14.6577 10.3068C16.8547 10.1128 19.0644 10.1097 21.262 10.2979C21.8698 11.1692 22.4642 12.1005 23.0347 13.0827C23.5916 14.0409 24.0977 15.0141 24.5588 15.9963C24.0926 16.9903 23.5866 17.9653 23.0422 18.9188ZM25.4078 17.9666C25.803 18.9473 26.1414 19.9294 26.4184 20.8817C25.4602 21.1167 24.448 21.3144 23.4015 21.4671C24.128 20.3343 24.7976 19.166 25.4078 17.9666ZM17.9816 25.7821C17.3003 25.0784 16.6191 24.2953 15.9454 23.4374C16.6041 23.4674 17.2779 23.4898 17.9591 23.4898C18.6478 23.4898 19.3291 23.4749 19.9953 23.4374C19.3365 24.2953 18.6553 25.0784 17.9816 25.7821ZM12.5317 21.4671C11.5222 21.3208 10.52 21.128 9.52828 20.8892C9.79928 19.9444 10.1362 18.9697 10.5164 17.9965C10.8174 18.5805 11.1333 19.1674 11.4777 19.7543C11.822 20.3397 12.1724 20.9116 12.5317 21.4671ZM17.9441 6.22543C18.6254 6.92912 19.3066 7.71216 19.9804 8.57007C19.3216 8.54012 18.6478 8.51766 17.9666 8.51766C17.2779 8.51766 16.5966 8.53264 15.9304 8.57007C16.5892 7.71216 17.2704 6.92912 17.9441 6.22543ZM12.5242 10.5404C11.7979 11.6707 11.1283 12.8365 10.5179 14.0334C10.1335 13.0789 9.7962 12.106 9.50732 11.1183C10.4655 10.8907 11.4777 10.6931 12.5242 10.5404ZM5.89604 19.7094C3.30286 18.6044 1.62598 17.1536 1.62598 16.0037C1.62598 14.8539 3.30286 13.3956 5.89604 12.2981C6.52487 12.0271 7.21359 11.7846 7.92477 11.5585C8.34249 12.9928 8.89197 14.4871 9.5717 16.0187C8.92994 17.4593 8.38719 18.942 7.94722 20.4565C7.25169 20.2411 6.56714 19.9918 5.89604 19.7094ZM9.83671 30.1749C8.84106 29.606 8.40837 27.429 8.74524 24.6322C8.82609 23.9435 8.95784 23.2173 9.11954 22.4777C10.5539 22.8296 12.1215 23.1005 13.7699 23.2772C14.7029 24.5644 15.7208 25.7878 16.8167 26.9394C14.4287 29.1583 12.1873 30.374 10.6632 30.374C10.3756 30.3772 10.0917 30.3093 9.83671 30.1764V30.1749ZM27.2104 24.5948C27.5548 27.3931 27.1296 29.5685 26.1399 30.1464C25.9213 30.2782 25.6353 30.3366 25.2985 30.3366C23.7818 30.3366 21.533 29.1283 19.1449 26.9229C20.1705 25.8479 21.1961 24.6247 22.1708 23.2697C23.7401 23.109 25.2964 22.8398 26.8286 22.4642C26.9978 23.2039 27.1281 23.9135 27.2104 24.5948ZM30.0297 19.7094C29.4008 19.9804 28.7121 20.2229 28.0009 20.449C27.5532 18.9268 27.003 17.4366 26.354 15.9888C27.0277 14.4661 27.5682 12.9794 27.9785 11.551C28.7046 11.7771 29.3919 12.0271 30.0372 12.2981C32.6303 13.4031 34.3072 14.8539 34.3072 16.0037C34.2997 17.1536 32.6228 18.6119 30.0297 19.7094Z" fill="#1CD6C1" />
    <path d="M17.9591 19.3516C18.847 19.3516 19.6985 18.9988 20.3263 18.371C20.9542 17.7432 21.3069 16.8917 21.3069 16.0038C21.3069 15.1159 20.9542 14.2644 20.3263 13.6365C19.6985 13.0087 18.847 12.656 17.9591 12.656C17.0712 12.656 16.2197 13.0087 15.5919 13.6365C14.964 14.2644 14.6113 15.1159 14.6113 16.0038C14.6113 16.8917 14.964 17.7432 15.5919 18.371C16.2197 18.9988 17.0712 19.3516 17.9591 19.3516Z" fill="#1CD6C1" />
</svg>