<svg width="31" height="26" viewBox="0 0 31 26" fill="none" xmlns="http://www.w3.org/2000/svg">
<path d="M27.8183 6.91653C28.9902 6.03763 30.0449 4.98294 30.8652 3.75247C29.8105 4.22122 28.58 4.57278 27.3496 4.68997C28.6386 3.92825 29.5761 2.75638 30.0449 1.29153C28.873 1.99466 27.5254 2.522 26.1777 2.81497C25.0058 1.5845 23.4238 0.881378 21.666 0.881378C18.2675 0.881378 15.5136 3.63528 15.5136 7.03372C15.5136 7.50247 15.5722 7.97122 15.6894 8.43997C10.5918 8.147 6.02145 5.68607 2.97457 1.99466C2.44723 2.87357 2.15426 3.92825 2.15426 5.10013C2.15426 7.2095 3.20895 9.0845 4.90816 10.1978C3.91207 10.1392 2.91598 9.90482 2.09566 9.43607V9.49466C2.09566 12.4829 4.20504 14.9439 7.01754 15.5298C6.54879 15.647 5.96285 15.7642 5.43551 15.7642C5.02535 15.7642 4.67379 15.7056 4.26363 15.647C5.02535 18.1079 7.31051 19.8658 10.0058 19.9243C7.89645 21.565 5.25973 22.5611 2.38863 22.5611C1.86129 22.5611 1.39254 22.5025 0.92379 22.4439C3.6191 24.2017 6.84176 25.1978 10.3574 25.1978C21.666 25.1978 27.8183 15.8814 27.8183 7.73685C27.8183 7.44388 27.8183 7.2095 27.8183 6.91653Z" fill="#1CD6C1"/>
</svg>
