<svg width="15" height="32" viewBox="0 0 15 32" fill="none" xmlns="http://www.w3.org/2000/svg">
<path d="M14.0579 12.692C12.3759 5.275 8.4019 2.843 7.9749 1.911C7.5059 1.25 7.0009 0 7.0009 0C6.9959 0.026 6.9959 0.042 6.9909 0.068V0.084C6.9909 0.105 6.9859 0.115 6.9859 0.136V0.157H6.9809V0.224H6.9759C6.9759 0.234 6.9759 0.25 6.9709 0.255V0.286C6.9709 0.296 6.9709 0.307 6.9659 0.312V0.338C6.9659 0.354 6.9659 0.369 6.9609 0.38V0.385C6.96002 0.40796 6.95667 0.430758 6.9509 0.453V0.463C6.9459 0.468 6.9459 0.473 6.9459 0.479V0.5H6.9409V0.531H6.9359V0.552H6.9259V0.583H6.9209V0.609H6.9159V0.63H6.9109V0.651H6.9059V0.672H6.9009V0.693H6.8959V0.709H6.8909V0.73H6.8859V0.751H6.8809C6.8759 0.751 6.8759 0.756 6.8759 0.756V0.766L6.8709 0.776C6.8709 0.786 6.8659 0.797 6.8609 0.807C6.8559 0.812 6.8559 0.812 6.8559 0.817V0.827H6.8509V0.837H6.8409V0.863H6.8309V0.879H6.8259V0.884H6.8209V0.894H6.8159V0.91H6.8109V0.92H6.8009V0.936H6.7959V0.946H6.7909V0.956H6.7859V0.972H6.7809V0.982H6.7759V0.987H6.7709V0.997H6.7609V1.013H6.7559V1.018H6.7509V1.028H6.7459V1.044H6.7409V1.049H6.7359V1.059H6.7309V1.064H6.7259V1.08H6.7159V1.085H6.7109V1.095H6.7059V1.1H6.7009V1.11H6.6959V1.12C6.6909 1.12 6.6909 1.125 6.6909 1.125V1.13H6.6859L6.6699 1.156C6.6699 1.156 6.6599 1.166 6.6599 1.172C6.6549 1.172 6.6549 1.177 6.6549 1.177V1.182H6.6499V1.187H6.6449V1.197H6.6349V1.202H6.6299V1.207H6.6249V1.222H6.6199V1.227H6.6149V1.232H6.6099V1.242H6.6049V1.232H6.5949V1.237H6.5899V1.247H6.5849V1.257H6.5799V1.262H6.5749V1.267H6.5699V1.272H6.5649V1.282H6.5549V1.287H6.5499V1.297H6.5449V1.302H6.5399V1.307H6.5349V1.323H6.5299V1.328H6.5249V1.333H6.5199V1.338H6.5149V1.343H6.5049V1.353H6.4999V1.358H6.4949V1.363H6.4899V1.373H6.4849V1.378H6.4749V1.383H6.4699V1.388H6.4649V1.398H6.4599V1.408H6.4549V1.413H6.4499V1.418H6.4399V1.423H6.4349V1.428H6.4299V1.438H6.4249V1.443H6.4199V1.453H6.4149V1.458H6.4099V1.463H6.4049V1.468H6.3999V1.473H6.3899V1.478C6.3849 1.478 6.3849 1.483 6.3849 1.483L6.3799 1.488L6.3749 1.493V1.503H6.3699V1.508H6.3649V1.513H6.3599V1.518H6.3549L6.3449 1.528V1.533C6.3349 1.538 6.3349 1.543 6.3239 1.554C6.3239 1.554 6.3139 1.564 6.3079 1.564C6.2919 1.574 6.2719 1.595 6.2559 1.611C6.2459 1.616 6.2349 1.627 6.2249 1.632C6.2039 1.653 6.1829 1.668 6.1619 1.684C6.1309 1.715 6.0989 1.736 6.0629 1.767H6.0579L5.8129 1.981H5.8079C5.5839 2.179 5.3179 2.434 5.0159 2.736L4.9899 2.762C3.1769 4.637 0.317901 8.548 0.0209009 14.866C-0.0100991 15.387 -0.00509991 15.897 0.0259001 16.392V16.402C0.1719 18.892 0.9529 21.017 1.9319 22.746C2.3169 23.434 2.7389 24.059 3.1659 24.621C4.6349 26.559 6.1349 27.71 6.5149 27.991C7.1039 29.35 7.0509 31.694 7.0509 31.694L7.9099 31.98C7.9099 31.98 7.7329 29.714 7.9779 28.615C8.0559 28.276 8.2329 27.985 8.4419 27.735C8.5879 27.636 9.0049 27.334 9.5049 26.876C9.5309 26.85 9.5469 26.829 9.5679 26.803C11.5939 24.912 15.3809 20.256 14.0839 12.673L14.0579 12.692Z" fill="#1CD6C1"/>
</svg>
