<svg width="610" height="345" viewBox="0 0 610 345" fill="none" xmlns="http://www.w3.org/2000/svg">
    <path fill-rule="evenodd" clip-rule="evenodd" d="M71.9371 0H537.412C545.322 0 551.734 6.41231 551.734 14.3223V325.507C551.734 333.417 545.322 339.829 537.412 339.829H71.9371C64.0271 339.829 57.6147 333.417 57.6147 325.507V14.3223C57.6147 6.41231 64.0271 0 71.9371 0Z" fill="#211525" />
    <path fill-rule="evenodd" clip-rule="evenodd" d="M71.937 1.302H537.412C544.603 1.302 550.432 7.13138 550.432 14.3223V325.507C550.432 332.698 544.603 338.527 537.412 338.527H71.937C64.7461 338.527 58.9167 332.698 58.9167 325.507V14.3223C58.9167 7.13138 64.7461 1.302 71.937 1.302Z" fill="#3A3149" />
    <path fill-rule="evenodd" clip-rule="evenodd" d="M2.60406 329.739H607.396C608.834 329.739 610 330.904 610 332.343V339.504H0V332.343C0 330.904 1.16588 329.739 2.60406 329.739Z" fill="#211525" />
    <path fill-rule="evenodd" clip-rule="evenodd" d="M2.60403 331.041H607.396C608.115 331.041 608.698 331.623 608.698 332.343V338.202H1.302V332.343C1.302 331.623 1.88494 331.041 2.60403 331.041Z" fill="#3A3149" />
    <path fill-rule="evenodd" clip-rule="evenodd" d="M0 339.504H610L607.415 340.882C602.701 343.397 597.44 344.712 592.097 344.712H17.9029C12.56 344.712 7.29923 343.397 2.58491 340.882L0 339.504Z" fill="#211525" />
    <path fill-rule="evenodd" clip-rule="evenodd" d="M261.382 329.739H348.943V330.064C348.943 333.659 346.029 336.574 342.433 336.574H267.892C264.297 336.574 261.382 333.659 261.382 330.064V329.739Z" fill="#211525" />
    <path fill-rule="evenodd" clip-rule="evenodd" d="M305 13.1831C306.079 13.1831 306.953 12.3087 306.953 11.23C306.953 10.1514 306.079 9.27698 305 9.27698C303.921 9.27698 303.047 10.1514 303.047 11.23C303.047 12.3087 303.921 13.1831 305 13.1831Z" fill="#211525" />
    <path fill-rule="evenodd" clip-rule="evenodd" d="M305 12.2065C305.539 12.2065 305.977 11.7693 305.977 11.23C305.977 10.6907 305.539 10.2535 305 10.2535C304.461 10.2535 304.023 10.6907 304.023 11.23C304.023 11.7693 304.461 12.2065 305 12.2065Z" fill="#211525" />
    <g clip-path="url(#clip0_8_918)">
        <path fill-rule="evenodd" clip-rule="evenodd" d="M70.3094 20.507H539.039V313.463H70.3094V20.507Z" fill="#211525" />
        <path fill-rule="evenodd" clip-rule="evenodd" d="M538.714 20.8325H70.635V313.138H538.714V20.8325ZM70.3094 20.507V313.463H539.039V20.507H70.3094Z" fill="#211525" />
    </g>
    <defs>
        <clipPath id="clip0_8_918">
            <rect width="468.73" height="292.956" fill="white" transform="translate(70.3094 20.507)" />
        </clipPath>
    </defs>
</svg>