<svg width="661" height="895" viewBox="0 0 661 895" fill="none" xmlns="http://www.w3.org/2000/svg">
<path fill-rule="evenodd" clip-rule="evenodd" d="M113.649 888.741C114.264 885.4 114.829 880.738 114.904 878.38L115.041 874.092L108.604 874.485C101.224 874.935 89.7885 877.901 78.931 882.18C74.519 883.919 67.7424 885.215 62.482 885.325L53.5361 885.512L48.3712 882.31C45.5305 880.548 41.3564 876.371 39.0955 873.027C36.8346 869.682 30.862 861.266 25.8229 854.324L16.6611 841.702L11.7867 828.761L6.91235 815.82L5.44307 799.938C3.57636 779.76 3.00163 772.02 1.34551 744.754L0 722.602L2.96404 716.171C4.59427 712.634 7.52038 706.353 9.46652 702.213L13.0049 694.687L17.1792 692.53C19.475 691.344 21.3535 690.229 21.3535 690.052C21.3535 689.875 20.4747 685.535 19.4007 680.406L17.448 671.081L18.6927 661.987C19.3773 656.985 20.868 649.332 22.0054 644.98C23.1428 640.628 23.6966 636.376 23.2361 635.531C22.7755 634.687 20.0788 630.551 17.2434 626.341L12.0881 618.688L12.3133 610.621C12.447 605.834 14.0878 598.487 16.3491 592.55C20.3077 582.157 21.0949 578.243 24.972 549.675C28.0065 527.316 29.1544 522.763 36.5828 503.617C40.007 494.792 42.8091 486.431 42.8097 485.038C42.8114 481.04 50.272 466.347 58.2828 454.564L65.6199 443.772L71.0208 440.699C73.9912 439.009 78.0517 436.148 80.044 434.341C93.8377 421.832 110.278 412.005 141.502 397.606C150.89 393.277 171.121 382.447 173.489 380.484C174.61 379.554 179.557 376.843 184.483 374.459C189.408 372.075 195.43 368.65 197.865 366.847C200.3 365.044 205.964 361.867 210.452 359.786L218.613 356.003L222.526 350.655C224.678 347.714 228.18 343.378 230.309 341.02C232.437 338.662 234.643 334.481 235.211 331.73C235.779 328.979 238.5 322.87 241.257 318.153L246.27 309.579L245.528 289.57L244.786 269.562L242.011 260.988C240.484 256.271 237.378 247.693 235.108 241.925L230.981 231.436L227.178 229.471C221.187 226.376 214.542 220.294 212.194 215.757C211.01 213.469 208.39 205.989 206.371 199.135L202.701 186.672L204.29 152.372C205.816 119.423 205.349 100.618 202.885 95.7977C202.235 94.5253 202.699 88.255 203.942 81.5062C205.161 74.8927 206.253 66.4784 206.37 62.8078L206.583 56.1339L209.56 52.8037C213.268 48.6553 218.741 39.1653 218.739 36.8868C218.739 35.9492 220.637 33.2528 222.958 30.8947C225.279 28.5366 229.426 23.9979 232.174 20.8088C234.922 17.6197 240.908 13.1373 245.477 10.8479C250.046 8.55854 254.635 5.86211 255.674 4.85584C255.926 4.61205 256.127 4.40012 256.303 4.21379C256.549 3.95364 256.749 3.7434 256.974 3.56606C257.921 2.81916 259.329 2.65576 266.665 1.80422C267.912 1.65942 269.331 1.49472 270.948 1.30387C293.469 -1.35397 333.147 0.291498 337.717 4.07276C338.755 4.93202 342.501 5.96702 346.041 6.37278C354.707 7.36607 361.847 9.30025 365.683 11.6939L368.855 13.6733L370.607 11.9227C371.571 10.9598 373.108 10.172 374.022 10.172C376.802 10.172 386.418 18.5134 393.516 27.082L400.227 35.1821L402.813 44.3309L405.4 53.4798L411.259 60.0516C414.482 63.6661 417.834 67.9772 418.708 69.632C420.809 73.608 423.073 87.9494 425.374 111.863L427.252 131.378L425.946 138.302L424.639 145.227L426.826 151.943L429.012 158.659L427.562 179.097C425.238 211.843 424.39 214.96 416.117 221.12L410.559 225.259L408.919 232.405C408.016 236.335 405.952 243.605 404.332 248.561L401.385 257.572L402.242 282.491C402.713 296.197 403.72 308.519 404.478 309.873C405.237 311.228 408.007 313.043 410.635 313.907L415.413 315.479L418.545 321.818C422.373 329.568 427.895 341.68 431.547 350.34L434.273 356.803L464.892 371.971C481.733 380.314 497.121 387.608 499.088 388.18C501.054 388.752 506.204 391.01 510.53 393.197C514.857 395.384 526.443 401.111 536.277 405.923C555.865 415.51 575.632 429.388 583.547 439.112C593.575 451.432 595.182 455.275 606.183 493.224C606.39 493.939 606.591 494.632 606.786 495.305C610.264 507.298 611.833 512.709 612.816 518.225C613.624 522.76 614.036 527.365 614.786 535.757C614.837 536.329 614.89 536.919 614.945 537.528C615.825 547.353 617.457 559.894 618.571 565.396C619.685 570.898 621.277 583.118 622.108 592.55C622.939 601.982 624.879 620.954 626.418 634.71C627.958 648.465 629.891 667.437 630.715 676.87C631.539 686.302 633.443 700.129 634.947 707.596C636.451 715.064 638.445 726.961 639.379 734.036C641.298 748.574 645.298 768.903 648.473 780.25C649.646 784.445 651.949 802.131 653.59 819.552C655.231 836.972 657.52 854.91 658.676 859.412L660.778 867.599L659.821 881.207L658.864 894.815H385.697H112.53L113.649 888.741ZM18.377 600.612C18.2184 597.4 12.8479 608.988 12.8403 612.558C12.8366 614.272 13.9668 612.923 15.6635 609.186C17.2196 605.76 18.4407 601.901 18.377 600.612ZM435 531.519C435.001 536.11 435.974 540.649 437.855 544.837C439.736 549.024 442.483 552.766 445.914 555.817C449.345 558.867 453.383 561.156 457.763 562.533C462.142 563.91 466.764 564.345 471.323 563.808C475.882 563.271 480.276 561.775 484.216 559.417C488.156 557.06 491.551 553.896 494.18 550.132C496.809 546.368 498.611 542.09 499.467 537.58C500.324 533.07 500.216 528.429 499.15 523.964C499.044 523.518 498.852 523.097 498.583 522.726C498.314 522.355 497.975 522.04 497.585 521.8C496.797 521.315 495.848 521.162 494.948 521.377C494.048 521.591 493.269 522.154 492.784 522.942C492.299 523.73 492.147 524.679 492.361 525.579C493.652 530.987 493.142 536.668 490.909 541.76C488.676 546.851 484.842 551.074 479.99 553.788C475.138 556.502 469.532 557.557 464.025 556.795C458.518 556.032 453.411 553.492 449.479 549.562C445.547 545.631 443.005 540.524 442.241 535.018C441.476 529.511 442.53 523.905 445.242 519.052C447.954 514.199 452.176 510.363 457.267 508.129C462.357 505.894 468.038 505.382 473.447 506.671C473.897 506.794 474.368 506.824 474.831 506.761C475.294 506.698 475.74 506.542 476.141 506.304C476.543 506.065 476.893 505.748 477.17 505.372C477.446 504.995 477.645 504.567 477.753 504.113C477.861 503.658 477.877 503.187 477.8 502.726C477.722 502.265 477.553 501.825 477.302 501.431C477.051 501.037 476.723 500.697 476.338 500.432C475.954 500.167 475.52 499.982 475.062 499.888C470.284 498.747 465.31 498.704 460.513 499.762C455.716 500.82 451.22 502.951 447.365 505.995C443.51 509.039 440.394 512.917 438.253 517.338C436.111 521.758 434.999 526.607 435 531.519ZM483.834 507.875C483.879 507.83 483.911 507.778 483.956 507.733C484.856 506.72 486.116 506.1 487.468 506.005C488.82 505.911 490.154 506.349 491.186 507.227C492.218 508.105 492.865 509.353 492.989 510.702C493.112 512.051 492.702 513.395 491.846 514.446C491.682 514.677 491.496 514.892 491.293 515.089C490.446 515.952 489.323 516.49 488.12 516.608H488.075H487.483H487.283C485.96 516.726 484.677 517.127 483.522 517.783C482.367 518.44 481.366 519.336 480.586 520.412C479.807 521.488 479.267 522.718 479.004 524.02C478.74 525.323 478.759 526.666 479.058 527.96V528.063C479.11 528.276 479.168 528.495 479.239 528.707C479.692 530.712 479.635 532.799 479.073 534.777C478.51 536.755 477.461 538.56 476.021 540.027C473.741 542.157 470.723 543.317 467.603 543.265C464.484 543.212 461.507 541.95 459.3 539.745C457.093 537.539 455.829 534.563 455.774 531.444C455.719 528.325 456.877 525.306 459.005 523.024C459.067 522.962 459.134 522.907 459.201 522.851C459.258 522.804 459.315 522.756 459.372 522.702C461.535 520.681 464.372 519.534 467.333 519.485C468.347 519.471 469.358 519.583 470.345 519.819C470.572 519.897 470.804 519.962 471.04 520.012C472.329 520.317 473.669 520.342 474.968 520.086C476.268 519.831 477.498 519.3 478.576 518.529C479.654 517.759 480.554 516.766 481.217 515.619C481.88 514.472 482.289 513.196 482.418 511.878C482.456 511.755 482.456 511.691 482.456 511.504V510.951C482.561 509.801 483.045 508.719 483.834 507.875Z" fill="#2F1F34"/>
</svg>
