<svg width="350" height="240" viewBox="0 0 350 240" fill="none" xmlns="http://www.w3.org/2000/svg">
<path d="M0.0545044 8.00001C0.0545044 3.58173 3.63623 0 8.0545 0H342C346.418 0 350 3.58172 350 8V240H0.0545044V8.00001Z" fill="#1CD6C1"/>
<path d="M194.027 104H146.027C144.923 104 144.027 104.895 144.027 106V142C144.027 143.105 144.923 144 146.027 144H194.027C195.132 144 196.027 143.105 196.027 142V106C196.027 104.895 195.132 104 194.027 104Z" stroke="#2F1F34" stroke-width="2" stroke-miterlimit="10"/>
<path d="M153.027 102V96H206.027V136H198.027" stroke="#2F1F34" stroke-width="2" stroke-miterlimit="10"/>
<path d="M144.027 134L158.027 120L172.027 136L182.027 130L196.027 142" stroke="#2F1F34" stroke-width="2" stroke-miterlimit="10"/>
<path d="M183.027 122C185.789 122 188.027 119.761 188.027 117C188.027 114.239 185.789 112 183.027 112C180.266 112 178.027 114.239 178.027 117C178.027 119.761 180.266 122 183.027 122Z" stroke="#2F1F34" stroke-width="2" stroke-miterlimit="10"/>
</svg>
