<svg width="575" height="575" viewBox="0 0 575 575" fill="none" xmlns="http://www.w3.org/2000/svg">
<path d="M304.707 409.381C305.195 411.536 307.759 426.817 303.772 432.151C301.081 435.753 300.807 435.16 301.173 433.063C301.54 430.944 300.011 427.033 300.135 428.986C300.256 430.944 299.777 432.414 299.17 430.546C298.567 428.709 296.912 426.094 297.605 428.772C298.306 431.439 298.293 435.558 296.886 435.6C295.491 435.622 294.796 434.235 294.472 432.752C290.808 416.317 304.136 406.866 304.707 409.381Z" fill="#3A3149"/>
<path d="M349.417 487.653C349.864 487.066 350.523 486.676 351.252 486.567C351.982 486.458 352.726 486.637 353.325 487.067C354.567 487.964 356.122 490.615 355.196 491.832C354.277 493.053 351.238 492.378 349.992 491.479C348.758 490.586 348.495 488.867 349.417 487.653Z" fill="#3A3149"/>
<path d="M335.668 498.365C339.595 502.087 344.584 504.464 350.068 506.169C347.149 506.219 344.247 505.714 341.516 504.683C338.752 503.628 336.214 502.054 334.04 500.047C329.754 496.015 326.969 490.467 326.689 484.817C327.709 487.45 329.032 489.874 330.484 492.172C331.952 494.442 333.693 496.522 335.668 498.365Z" fill="#3A3149"/>
<path d="M352.859 483.164C351.749 482.745 346.328 481.343 345.875 487.183C345.875 487.183 345.567 489.8 344.882 487.205C344.202 484.595 345.825 477.862 352.93 482.308C354.195 483.096 353.968 483.589 352.859 483.164Z" fill="#3A3149"/>
<path d="M188.195 505.091L193.854 492.772C196.276 487.499 199.576 482.905 203.17 478.961L197.943 479.321C198.854 477.068 200.041 474.936 201.477 472.975L200.134 473.12L204.939 465.138C206.483 462.57 208.321 460.313 210.268 458.231L200.085 456.65C205.623 454.789 211.085 452.71 216.459 450.416L205.599 450.4L191.247 450.377L203.022 442.011C207.163 439.068 211.743 436.603 216.469 434.514L199.689 428.838C210.543 428.158 221.384 427.286 232.207 426.221L208.945 421.591L188 417.42L208.807 412.575C216.141 410.887 223.582 409.701 231.078 409.028L215.199 401.138C241.81 399.247 261.956 404.233 274.754 409.117C275.206 407.315 275.697 405.523 276.226 403.741C266.606 397.286 249.505 389.673 220.456 386.898C250.987 383.621 269.457 388.383 279.872 393.274C285.109 380.176 290.65 373.127 290.65 373.127C293.198 378.277 295.321 383.626 296.996 389.122C302.8 382.367 308.542 378.922 308.995 378.658L314.938 375.18L317.555 381.644C320.541 389.033 321.449 398.841 321.587 407.051L386 358L330.9 433.313C341.727 445.965 357.547 462.122 368.362 473.163C376.232 481.202 380.42 485.489 382.119 487.591C390.023 497.333 376.819 515.291 370.774 522.561L369.239 524.406L366.883 524.69C365.85 524.812 362.798 525.574 356.765 529.943C355.244 531.035 353.417 531.616 351.545 531.603C347.509 531.603 343.734 529.217 338.952 526.198C334.636 523.475 329.748 520.386 325.029 519.489C310.021 516.611 298.916 512.387 291.831 506.883C294.141 520.974 303.47 538.497 310.74 545.341L322.069 556H284.06C272.421 513.648 284.139 491.967 288.099 488.139C288.232 484.583 289.335 481.131 291.287 478.156C289.006 483.783 289.046 490.165 291.831 495.135C294.633 500.131 299.656 503.583 305.008 506.051C310.39 508.556 316.241 510.219 322.142 511.592C330.89 513.628 336.642 517.166 339.057 519.073L339.051 519.07C344.245 522.234 348.628 525.465 351.545 525.465C352.164 525.483 352.772 525.298 353.277 524.94C355.663 523.214 361.498 519.152 366.18 518.591C366.18 518.591 383.017 498.342 377.469 491.508C373.146 486.162 343.133 457.112 325.762 436.659C323.049 445.374 312.063 452.225 300.976 457.083C304.714 460.016 312.885 465.035 323.128 462.894C326.795 462.128 332.306 461.112 335.266 467.388C335.266 467.388 332.52 465.319 330.039 465.824C330.039 465.824 329.5 466 328.5 466.5C328.5 466.5 326 467.5 321 468C321 468 319.5 468.223 315.463 468.223C315.463 468.223 315 468.223 314 468.223C314 468.223 311.885 468.223 310.044 466.963C306.351 464.435 302.296 462.91 299.745 457.617C287.129 462.983 274.777 465.765 274.777 465.765C307.163 448.809 315.413 415.093 315.479 414.816C315.796 406.493 315.621 392.983 311.984 383.991C311.984 383.991 298.134 392.122 292.716 408.648C292.726 409.001 292.778 412.843 290.854 417.08C290.854 417.08 270.414 472.272 228.286 487.865C258.772 458.214 261.405 438.008 273.655 423.056C251.469 434.167 215.651 471.352 215.199 556H199.59L202.9 548.671C201.87 549.123 200.847 549.535 199.827 549.852C199.827 549.852 201.774 547.592 204.741 542.774L203.411 542.82L189.749 543.292L200.448 534.613C202.546 532.91 204.685 529.841 206.721 526.191L197.94 528.765C199.103 526.099 200.313 523.453 201.57 520.829L195.095 525.079L198.395 513.773C196.181 512.156 191.383 514.552 191.383 514.552C192.98 508.698 199.468 502.164 202.886 500.214C203.499 498.879 204.146 497.561 204.827 496.26L200.022 498.808L188.195 505.091ZM364.444 382.331L371.19 373.111L362.857 379.457L364.444 382.331ZM356.317 393.439L352.053 387.68L340.813 396.237L348.522 404.098L356.317 393.439ZM333.83 424.175L341.031 414.338L329.111 405.15L321.601 410.869C321.574 413.176 321.505 415.258 321.412 417.03L333.83 424.175ZM273.157 416.493C273.223 416.139 273.279 415.757 273.351 415.403C264.299 413.717 255.11 412.873 245.902 412.882C235.111 412.882 222.957 414.011 209.813 417.07L256.825 426.435C261.892 422.538 267.368 419.205 273.157 416.493ZM249.172 432.946C250.527 431.666 251.921 430.427 253.35 429.23C240.711 431.059 220.149 435.467 205.609 445.796L237.774 445.849C241.196 441.229 245.01 436.912 249.172 432.946ZM236.906 447.018C230.131 449.314 216.146 455.32 208.787 467.557L225.867 465.705C228.977 459.156 232.671 452.902 236.906 447.018ZM203.262 538.22L209.483 538.005C209.619 535.171 209.801 532.339 210.031 529.511C207.902 533.167 205.612 536.312 203.262 538.22ZM202.49 514.75L212.737 508.018C214.114 500.087 216.015 492.257 218.429 484.578C215.09 488.185 206.784 498.392 202.49 514.75ZM218.72 483.71C220.48 478.245 222.561 472.889 224.953 467.669C217.875 471.642 204.404 480.668 197.943 494.729L218.72 483.71Z" fill="#3A3149"/>
<circle cx="287.311" cy="287.311" r="277.311" stroke="#3A3149" stroke-width="20"/>
</svg>
