<svg width="33" height="23" viewBox="0 0 33 23" fill="none" xmlns="http://www.w3.org/2000/svg">
<path d="M32.293 4.07422C31.9414 2.66797 30.8281 1.55469 29.4805 1.20312C26.9609 0.5 17 0.5 17 0.5C17 0.5 6.98047 0.5 4.46094 1.20312C3.11328 1.55469 2 2.66797 1.64844 4.07422C0.945312 6.53516 0.945312 11.8086 0.945312 11.8086C0.945312 11.8086 0.945312 17.0234 1.64844 19.543C2 20.9492 3.11328 22.0039 4.46094 22.3555C6.98047 23 17 23 17 23C17 23 26.9609 23 29.4805 22.3555C30.8281 22.0039 31.9414 20.9492 32.293 19.543C32.9961 17.0234 32.9961 11.8086 32.9961 11.8086C32.9961 11.8086 32.9961 6.53516 32.293 4.07422ZM13.7188 16.5547V7.0625L22.0391 11.8086L13.7188 16.5547Z" fill="#1CD6C1"/>
</svg>
