<svg width="198" height="198" viewBox="0 0 198 198" fill="none" xmlns="http://www.w3.org/2000/svg">
<path d="M116.707 51.3807C117.195 53.5364 119.759 68.8166 115.772 74.1507C113.081 77.7533 112.807 77.1603 113.173 75.0625C113.54 72.9436 112.011 69.0327 112.135 70.9855C112.256 72.9436 111.777 74.4142 111.17 72.5457C110.567 70.7088 108.912 68.0945 109.605 70.7721C110.306 73.4391 110.293 77.5583 108.886 77.6004C107.491 77.6215 106.796 76.2353 106.472 74.7515C102.808 58.3171 116.136 48.8665 116.707 51.3807Z" fill="#3A3149"/>
<path d="M161.417 129.653C161.864 129.066 162.523 128.676 163.252 128.567C163.982 128.458 164.726 128.637 165.325 129.067C166.567 129.964 168.122 132.615 167.196 133.832C166.277 135.053 163.238 134.378 161.992 133.479C160.758 132.586 160.495 130.867 161.417 129.653Z" fill="#3A3149"/>
<path d="M147.668 140.365C151.595 144.087 156.584 146.464 162.068 148.169C159.149 148.219 156.247 147.714 153.516 146.683C150.752 145.628 148.214 144.054 146.04 142.047C141.754 138.015 138.969 132.467 138.689 126.817C139.709 129.45 141.032 131.874 142.484 134.172C143.952 136.442 145.693 138.522 147.668 140.365Z" fill="#3A3149"/>
<path d="M164.859 125.164C163.749 124.745 158.328 123.343 157.875 129.183C157.875 129.183 157.567 131.8 156.882 129.205C156.202 126.595 157.825 119.862 164.93 124.308C166.195 125.096 165.968 125.589 164.859 125.164Z" fill="#3A3149"/>
<path d="M0.194702 147.091L5.8542 134.772C8.2764 129.499 11.5764 124.905 15.1701 120.961L9.9429 121.321C10.8542 119.068 12.0414 116.936 13.4772 114.975L12.1341 115.12L16.9389 107.138C18.4833 104.57 20.3214 102.313 22.2684 100.231L12.0846 98.6502C17.6229 96.789 23.0853 94.7095 28.4592 92.4165L17.5989 92.4L3.24721 92.3769L15.0216 84.0114C19.1631 81.0678 23.7435 78.6027 28.4691 76.5138L11.6886 70.8378C22.5426 70.158 33.3837 69.2855 44.2068 68.2209L20.9451 63.591L0 59.4198L20.8065 54.5754C28.1409 52.8866 35.5821 51.7013 43.0782 51.0279L27.1986 43.1376C53.8098 41.2467 73.9563 46.233 86.7537 51.117C87.2064 49.3149 87.6971 47.5226 88.2255 45.7413C78.606 39.2865 61.5054 31.6734 32.4555 28.8981C62.9871 25.6212 81.4572 30.3831 91.872 35.2737C97.1091 22.176 102.65 15.1272 102.65 15.1272C105.198 20.2767 107.321 25.6262 108.996 31.1223C114.8 24.3672 120.542 20.922 120.995 20.658L126.938 17.1798L129.555 23.6445C132.541 31.0332 133.449 40.8408 133.587 49.0512L198 0L142.9 75.3126C153.727 87.9648 169.547 104.122 180.362 115.163C188.232 123.202 192.42 127.489 194.119 129.591C202.023 139.333 188.819 157.291 182.774 164.561L181.239 166.406L178.883 166.69C177.85 166.812 174.798 167.574 168.765 171.943C167.244 173.035 165.417 173.616 163.545 173.603C159.509 173.603 155.734 171.217 150.952 168.198C146.636 165.475 141.748 162.386 137.029 161.489C122.021 158.611 110.916 154.387 103.831 148.883C106.141 162.974 115.47 180.497 122.74 187.341L134.069 198H96.0597C84.4206 155.648 96.1389 133.967 100.099 130.139C100.232 126.583 101.335 123.131 103.287 120.156C101.006 125.783 101.046 132.165 103.831 137.135C106.633 142.131 111.656 145.583 117.008 148.051C122.39 150.556 128.241 152.219 134.142 153.592C142.89 155.628 148.642 159.166 151.057 161.073L151.051 161.07C156.245 164.234 160.628 167.465 163.545 167.465C164.164 167.483 164.772 167.298 165.277 166.94C167.663 165.214 173.498 161.152 178.18 160.591C178.18 160.591 195.017 140.342 189.469 133.508C185.146 128.162 155.133 99.1122 137.762 78.6588C135.049 87.3741 124.063 94.2249 112.976 99.0825C116.714 102.016 124.885 107.035 135.128 104.894C138.795 104.128 144.306 103.112 147.266 109.388C147.266 109.388 144.52 107.319 142.039 107.824C142.039 107.824 141.5 108 140.5 108.5C140.5 108.5 138 109.5 133 110C133 110 131.5 110.223 127.463 110.223C127.463 110.223 127 110.223 126 110.223C126 110.223 123.885 110.223 122.044 108.963C118.351 106.435 114.296 104.91 111.745 99.6171C99.1287 104.983 86.7768 107.765 86.7768 107.765C119.163 90.8094 127.413 57.0933 127.479 56.8161C127.796 48.4935 127.621 34.9833 123.984 25.9908C123.984 25.9908 110.134 34.122 104.716 50.6484C104.726 51.0015 104.778 54.8427 102.854 59.0799C102.854 59.0799 82.4142 114.272 40.2864 129.865C70.7718 100.214 73.4052 80.0085 85.6548 65.0562C63.4689 76.1673 27.6507 113.352 27.1986 198H11.5896L14.8995 190.671C13.8699 191.123 12.8469 191.535 11.8272 191.852C11.8272 191.852 13.7742 189.592 16.7409 184.774L15.411 184.82L1.74899 185.292L12.4476 176.613C14.5464 174.91 16.6848 171.841 18.7209 168.191L9.93961 170.765C11.1031 168.099 12.3133 165.453 13.5696 162.829L7.095 167.079L10.395 155.773C8.18071 154.156 3.38251 156.552 3.38251 156.552C4.97971 150.698 11.4675 144.164 14.8863 142.214C15.4989 140.879 16.1459 139.561 16.8267 138.26L12.0219 140.808L0.194702 147.091ZM176.444 24.3309L183.19 15.1107L174.857 21.4566L176.444 24.3309ZM168.317 35.4387L164.053 29.6802L152.813 38.2371L160.522 46.0977L168.317 35.4387ZM145.83 66.1749L153.031 56.3376L141.111 47.1504L133.601 52.8693C133.574 55.176 133.505 57.2583 133.412 59.0304L145.83 66.1749ZM85.1565 58.4925C85.2225 58.1394 85.2786 57.7566 85.3512 57.4035C76.2989 55.7172 67.1098 54.8731 57.9018 54.8823C47.1108 54.8823 34.9569 56.0109 21.813 59.07L68.8248 68.4354C73.8919 64.5385 79.368 61.2046 85.1565 58.4925ZM61.1721 74.9463C62.5274 73.6664 63.9206 72.4273 65.3499 71.2305C52.7109 73.0587 32.1486 77.4675 17.6088 87.7965L49.7739 87.8493C53.1962 83.2294 57.0097 78.9124 61.1721 74.9463ZM48.906 89.0175C42.1311 91.3143 28.1457 97.3203 20.7867 109.557L37.8675 107.705C40.9766 101.156 44.6711 94.9016 48.906 89.0175ZM15.2625 180.22L21.483 180.005C21.6186 177.171 21.8012 174.339 22.0308 171.511C19.9023 175.167 17.6121 178.312 15.2625 180.22ZM14.4903 156.75L24.7368 150.018C26.1137 142.087 28.0154 134.257 30.4293 126.578C27.0897 130.185 18.7836 140.392 14.4903 156.75ZM30.7197 125.71C32.4799 120.245 34.5614 114.889 36.9534 109.669C29.8749 113.642 16.4043 122.668 9.9429 136.729L30.7197 125.71Z" fill="#3A3149"/>
</svg>
