<?xml version="1.0" encoding="utf-8"?>
<!-- Generator: Adobe Illustrator 25.4.1, SVG Export Plug-In . SVG Version: 6.00 Build 0)  -->
<svg version="1.1" id="Calque_1" xmlns="http://www.w3.org/2000/svg" xmlns:xlink="http://www.w3.org/1999/xlink" x="0px" y="0px"
	 viewBox="0 0 198 198" style="enable-background:new 0 0 198 198;" xml:space="preserve">
<style type="text/css">
	.st0{fill:#3A3149;}
	.st1{fill:none;stroke:#3A3149;stroke-miterlimit:10;}
</style>
<g id="XMLID_00000127043210742574199100000000807075848239584645_">
	<g>
		<path class="st0" d="M22,171.5c-0.2,2.8-0.4,5.7-0.6,8.5l-6.2,0.2C17.6,178.3,19.9,175.2,22,171.5z"/>
		<path class="st0" d="M85.3,57.4c-0.1,0.4-0.1,0.7-0.2,1.1c-5.8,2.7-11.3,6-16.3,10l-47-9.4C35,56,47.1,54.9,57.9,54.9
			C67.1,54.9,76.3,55.7,85.3,57.4z"/>
		<path class="st0" d="M65.3,71.2c-1.4,1.2-2.8,2.4-4.2,3.7c-4.2,4-8,8.3-11.4,12.9l-32.2,0C32.2,77.5,52.7,73.1,65.3,71.2z"/>
		<path class="st0" d="M30.4,126.6c-2.4,7.7-4.3,15.5-5.7,23.4l-10.2,6.7C18.8,140.4,27.1,130.2,30.4,126.6z"/>
		<path class="st0" d="M37,109.7c-2.4,5.2-4.5,10.6-6.2,16l-20.8,11C16.4,122.7,29.9,113.6,37,109.7z"/>
		<path class="st0" d="M48.9,89c-4.2,5.9-7.9,12.1-11,18.7l-17.1,1.8C28.1,97.3,42.1,91.3,48.9,89z"/>
		<polygon class="st0" points="183.2,15.1 176.4,24.3 174.9,21.5 		"/>
		<polygon class="st0" points="164.1,29.7 168.3,35.4 160.5,46.1 152.8,38.2 		"/>
		<path class="st0" d="M153,56.3l-7.2,9.8L133.4,59c0.1-1.8,0.2-3.8,0.2-6.2l7.5-5.7L153,56.3z"/>
		<path class="st0" d="M116.7,51.4c-0.6-2.5-13.9,6.9-10.2,23.4c0.3,1.5,1,2.9,2.4,2.8c1.4,0,1.4-4.2,0.7-6.8
			c-0.7-2.7,1-0.1,1.6,1.8c0.6,1.9,1.1,0.4,1-1.6c-0.1-2,1.4,2,1,4.1c-0.4,2.1-0.1,2.7,2.6-0.9C119.8,68.8,117.2,53.5,116.7,51.4z
			 M162,133.5c1.2,0.9,4.3,1.6,5.2,0.4c0.9-1.2-0.6-3.9-1.9-4.8c-0.6-0.4-1.3-0.6-2.1-0.5c-0.7,0.1-1.4,0.5-1.8,1.1
			C160.5,130.9,160.8,132.6,162,133.5z M153.5,146.7c2.7,1,5.6,1.5,8.6,1.5c-5.5-1.7-10.5-4.1-14.4-7.8c-2-1.8-3.7-3.9-5.2-6.2
			c-1.4-2.3-2.8-4.7-3.8-7.3c0.3,5.7,3.1,11.2,7.3,15.2C148.2,144.1,150.8,145.6,153.5,146.7z M156.9,129.2c0.7,2.6,1,0,1,0
			c0.4-5.8,5.9-4.4,7-4c1.1,0.4,1.3-0.1,0.1-0.9C157.8,119.9,156.2,126.6,156.9,129.2z M96.1,198H27.2
			c0.4-84.7,36.3-121.8,58.5-132.9c-12.2,15-14.9,35.2-45.4,64.8c42.1-15.6,62.6-70.8,62.6-70.8c1.9-4.2,1.9-8.1,1.9-8.4
			C110.1,34.1,124,26,124,26c3.6,9,3.8,22.5,3.5,30.8c-0.1,0.3-8.3,34-40.7,50.9c0,0,12.3-2.8,25-8.1c2.6,5.3,6.6,6.8,10.3,9.3
			c1.8,1.3,4,1.3,4,1.3c1,0,1.5,0,1.5,0c4,0,5.5-0.2,5.5-0.2c5-0.5,7.5-1.5,7.5-1.5c1-0.5,1.5-0.7,1.5-0.7c2.5-0.5,5.2,1.6,5.2,1.6
			c-3-6.3-8.5-5.3-12.1-4.5c-10.2,2.2-18.4-2.9-22.2-5.8c11.1-4.9,22.1-11.7,24.8-20.4c17.4,20.4,47.4,49.5,51.7,54.8
			c5.6,6.8-11.3,27.1-11.3,27.1c-4.7,0.6-10.5,4.6-12.9,6.4c-0.5,0.4-1.1,0.5-1.7,0.5c-2.9,0-7.3-3.2-12.5-6.4
			c-2.4-1.9-8.2-5.4-16.9-7.5c-5.9-1.4-11.8-3-17.1-5.5c-5.3-2.5-10.4-5.9-13.2-10.9c-2.8-5-2.8-11.4-0.5-17c-2,3-3.1,6.4-3.2,10
			C96.1,134,84.4,155.6,96.1,198z"/>
	</g>
	<g>
		<path class="st1" d="M21.5,180l-6.2,0.2c2.4-1.9,4.6-5.1,6.8-8.7C21.8,174.3,21.6,177.2,21.5,180z"/>
		<path class="st1" d="M24.7,150l-10.2,6.7c4.3-16.4,12.6-26.6,15.9-30.2C28,134.3,26.1,142.1,24.7,150z"/>
		<path class="st1" d="M30.7,125.7l-20.8,11c6.5-14.1,19.9-23.1,27-27.1C34.6,114.9,32.5,120.2,30.7,125.7z"/>
		<path class="st1" d="M37.9,107.7l-17.1,1.8C28.1,97.3,42.1,91.3,48.9,89C44.7,94.9,41,101.2,37.9,107.7z"/>
		<path class="st1" d="M61.2,74.9c-4.2,4-8,8.3-11.4,12.9l-32.2,0c14.5-10.3,35.1-14.7,47.7-16.6C63.9,72.4,62.5,73.7,61.2,74.9z"/>
		<path class="st1" d="M85.2,58.5c-5.8,2.7-11.3,6-16.3,10l-47-9.4C35,56,47.1,54.9,57.9,54.9c9.2,0,18.4,0.8,27.4,2.5
			C85.3,57.8,85.2,58.1,85.2,58.5z"/>
		<polygon class="st1" points="183.2,15.1 176.4,24.3 174.9,21.5 		"/>
		<polygon class="st1" points="164.1,29.7 168.3,35.4 160.5,46.1 152.8,38.2 		"/>
		<path class="st1" d="M133.4,59c0.1-1.8,0.2-3.8,0.2-6.2l7.5-5.7l11.9,9.2l-7.2,9.8L133.4,59z"/>
		<path class="st1" d="M115.8,74.2c-2.7,3.6-3,3-2.6,0.9c0.4-2.1-1.2-6-1-4.1c0.1,2-0.4,3.4-1,1.6c-0.6-1.8-2.3-4.5-1.6-1.8
			c0.7,2.7,0.7,6.8-0.7,6.8c-1.4,0-2.1-1.4-2.4-2.8c-3.7-16.4,9.7-25.9,10.2-23.4C117.2,53.5,119.8,68.8,115.8,74.2z"/>
		<path class="st1" d="M147.7,140.4c3.9,3.7,8.9,6.1,14.4,7.8c-2.9,0.1-5.8-0.5-8.6-1.5c-2.8-1-5.3-2.6-7.5-4.6
			c-4.3-4-7.1-9.6-7.3-15.2c1,2.6,2.3,5,3.8,7.3C143.9,136.4,145.7,138.5,147.7,140.4z"/>
		<path class="st1" d="M164.9,125.2c-1.1-0.4-6.5-1.8-7,4c0,0-0.3,2.6-1,0c-0.7-2.6,0.9-9.4,8-4.9
			C166.2,125.1,166,125.6,164.9,125.2z"/>
		<path class="st1" d="M167.2,133.8c-0.9,1.2-4,0.6-5.2-0.4c-1.2-0.9-1.5-2.6-0.6-3.8c0.4-0.6,1.1-1,1.8-1.1
			c0.7-0.1,1.5,0.1,2.1,0.5C166.6,130,168.1,132.6,167.2,133.8z"/>
		<path class="st1" d="M27.2,198H11.6l3.3-7.3c-1,0.4-2,0.9-3.1,1.2c0,0,1.9-2.3,4.9-7.1l-1.3,0.1l-13.7,0.5l10.7-8.7
			c2.1-1.7,4.2-4.8,6.3-8.4l-8.8,2.6c1.2-2.7,2.4-5.3,3.6-7.9l-6.5,4.2l3.3-11.3c-2.2-1.6-7,0.8-7,0.8c1.6-5.9,8.1-12.4,11.5-14.3
			c0.6-1.3,1.3-2.7,1.9-4l-4.8,2.6l-11.8,6.3l5.7-12.3c2.4-5.3,5.7-9.9,9.3-13.8l-5.2,0.4c0.9-2.2,2.1-4.4,3.5-6.3l-1.3,0.2l4.8-8
			c1.5-2.6,3.4-4.8,5.3-6.9l-10.2-1.6c5.5-1.9,11-3.9,16.4-6.2l-10.9,0l-14.4,0L15,84c4.1-2.9,8.7-5.4,13.4-7.5l-16.8-5.7
			c10.9-0.7,21.7-1.5,32.5-2.6L21,63.6L0,59.4l20.8-4.8c7.3-1.7,14.8-2.9,22.3-3.6l-15.9-7.9c26.6-1.9,46.8,3.1,59.5,8
			c0.5-1.8,0.9-3.6,1.5-5.4c-9.6-6.5-26.7-14.1-55.8-16.8c30.5-3.3,49,1.5,59.4,6.4c5.2-13.1,10.8-20.1,10.8-20.1
			c2.5,5.2,4.7,10.5,6.3,16c5.8-6.8,11.5-10.2,12-10.5l5.9-3.5l2.6,6.5c3,7.4,3.9,17.2,4,25.4L198,0l-55.1,75.3
			c10.8,12.7,26.7,28.8,37.5,39.9c7.9,8,12.1,12.3,13.8,14.4c7.9,9.7-5.3,27.7-11.3,35l-1.5,1.9l-2.4,0.3c-1,0.1-4.1,0.9-10.1,5.2
			c-1.5,1.1-3.3,1.7-5.2,1.7c-4,0-7.8-2.4-12.6-5.4c-4.3-2.7-9.2-5.8-13.9-6.7c-15-2.9-26.1-7.1-33.2-12.6
			c2.3,14.1,11.6,31.6,18.9,38.5l11.3,10.7h-38c-11.6-42.4,0.1-64,4-67.9c0.1-3.6,1.2-7,3.2-10c-2.3,5.6-2.2,12,0.5,17
			c2.8,5,7.8,8.4,13.2,10.9c5.4,2.5,11.2,4.2,17.1,5.5c8.7,2,14.5,5.6,16.9,7.5c5.2,3.2,9.6,6.4,12.5,6.4c0.6,0,1.2-0.2,1.7-0.5
			c2.4-1.7,8.2-5.8,12.9-6.4c0,0,16.8-20.2,11.3-27.1c-4.3-5.3-34.3-34.4-51.7-54.8c-2.7,8.7-13.7,15.6-24.8,20.4
			c3.7,2.9,11.9,8,22.2,5.8c3.7-0.8,9.2-1.8,12.1,4.5c0,0-2.8-2.1-5.2-1.6c0,0-0.5,0.2-1.5,0.7c0,0-2.5,1-7.5,1.5
			c0,0-1.5,0.2-5.5,0.2c0,0-0.5,0-1.5,0c0,0-2.1,0-4-1.3c-3.7-2.5-7.7-4-10.3-9.3c-12.6,5.4-25,8.1-25,8.1
			c32.4-17,40.6-50.7,40.7-50.9c0.3-8.3,0.1-21.8-3.5-30.8c0,0-13.9,8.1-19.3,24.7c0,0.3,0.1,4.2-1.9,8.4c0,0-20.4,55.2-62.6,70.8
			C70.8,100.2,73.4,80,85.7,65.1C63.5,76.2,27.6,113.3,27.2,198z"/>
	</g>
</g>
</svg>