<svg width="28" height="27" viewBox="0 0 28 27" fill="none" xmlns="http://www.w3.org/2000/svg">
<path d="M6.65816 26.2603V8.74075H1.20895V26.2603H6.65816ZM3.90426 6.397C5.66207 6.397 7.06832 4.93216 7.06832 3.17435C7.06832 1.47513 5.66207 0.0688782 3.90426 0.0688782C2.20504 0.0688782 0.79879 1.47513 0.79879 3.17435C0.79879 4.93216 2.20504 6.397 3.90426 6.397ZM26.9902 26.2603H27.0488V16.6509C27.0488 11.9634 25.9941 8.3306 20.4863 8.3306C17.8496 8.3306 16.0918 9.79544 15.33 11.1431H15.2714V8.74075H10.0566V26.2603H15.5058V17.5884C15.5058 15.3033 15.916 13.1353 18.7285 13.1353C21.541 13.1353 21.5996 15.7134 21.5996 17.7642V26.2603H26.9902Z" fill="#1CD6C1"/>
</svg>
